<svg width="152" height="39" viewBox="0 0 152 39" fill="none" xmlns="http://www.w3.org/2000/svg">
<rect y="0.0090332" width="151.273" height="38.8498" rx="2.90909" fill="black"/>
<path d="M55.4846 13.608H51.4769V23.6272H55.4846C58.247 23.6272 60.3511 21.4516 60.3511 18.6176C60.3511 15.7836 58.247 13.608 55.4846 13.608ZM55.4846 21.423H53.767V15.8122H55.4846C57.0591 15.8122 58.1469 16.9 58.1469 18.6176C58.1469 20.3352 57.0591 21.423 55.4846 21.423ZM66.4193 23.8276C69.2962 23.8276 71.6292 21.5661 71.6292 18.6176C71.6292 15.6691 69.2962 13.4076 66.4193 13.4076C63.5423 13.4076 61.2093 15.6691 61.2093 18.6176C61.2093 21.5661 63.5423 23.8276 66.4193 23.8276ZM66.4193 21.5947C64.7876 21.5947 63.4994 20.4068 63.4994 18.6176C63.4994 16.8285 64.7876 15.6405 66.4193 15.6405C68.051 15.6405 69.3391 16.8285 69.3391 18.6176C69.3391 20.4068 68.051 21.5947 66.4193 21.5947ZM74.5321 23.6272H77.1371L78.7688 17.7159L80.4005 23.6272H83.0055L85.7679 13.608H83.3633L81.6314 20.6214L79.6991 13.608H77.8384L75.9062 20.6214L74.1743 13.608H71.7697L74.5321 23.6272ZM92.3526 13.608V19.047L88.488 13.608H86.7705V23.6272H89.0606V18.1882L92.9251 23.6272H94.6427V13.608H92.3526ZM98.6492 21.423V13.608H96.3591V23.6272H102.227V21.423H98.6492ZM107.444 23.8276C110.321 23.8276 112.654 21.5661 112.654 18.6176C112.654 15.6691 110.321 13.4076 107.444 13.4076C104.567 13.4076 102.234 15.6691 102.234 18.6176C102.234 21.5661 104.567 23.8276 107.444 23.8276ZM107.444 21.5947C105.812 21.5947 104.524 20.4068 104.524 18.6176C104.524 16.8285 105.812 15.6405 107.444 15.6405C109.075 15.6405 110.363 16.8285 110.363 18.6176C110.363 20.4068 109.075 21.5947 107.444 21.5947ZM119.949 23.6272H122.454L119.047 13.608H116.127L112.721 23.6272H115.226L115.727 22.0528H119.448L119.949 23.6272ZM116.414 19.9058L117.587 16.2273L118.761 19.9058H116.414ZM127.316 13.608H123.308V23.6272H127.316C130.078 23.6272 132.182 21.4516 132.182 18.6176C132.182 15.7836 130.078 13.608 127.316 13.608ZM127.316 21.423H125.598V15.8122H127.316C128.89 15.8122 129.978 16.9 129.978 18.6176C129.978 20.3352 128.89 21.423 127.316 21.423Z" fill="white"/>
<path d="M32.7499 18.6724L35.9757 15.8132L25.5565 10.6226C24.8659 10.2919 24.219 10.2455 23.6518 10.6071L32.7499 18.6724ZM36.5256 22.02L39.879 20.3481C40.5336 20.0232 40.8925 19.563 40.8925 19.0524C40.8925 18.5428 40.5336 18.0816 39.8801 17.7567L36.8441 16.2454L33.4263 19.2738L36.5256 22.02ZM23.091 11.3101C23.0212 11.5006 22.9819 11.7133 22.9819 11.9464V26.1652C22.9819 26.5336 23.0736 26.8508 23.2394 27.1032L32.0725 19.2729L23.091 11.3101ZM32.7499 19.8724L23.9659 27.6592C24.1339 27.7162 24.315 27.7462 24.5059 27.7462C24.8463 27.7462 25.2008 27.6572 25.5619 27.4793L35.6583 22.4541L32.7499 19.8724Z" fill="white"/>
</svg>
