<svg width="152" height="39" viewBox="0 0 152 39" fill="none" xmlns="http://www.w3.org/2000/svg">
<rect x="0.727539" y="0.0090332" width="151.273" height="38.9818" rx="2.90909" fill="black"/>
<path d="M55.6301 14.1898H51.6225V24.209H55.6301C58.3926 24.209 60.4966 22.0334 60.4966 19.1994C60.4966 16.3654 58.3926 14.1898 55.6301 14.1898ZM55.6301 22.0048H53.9126V16.394H55.6301C57.2046 16.394 58.2924 17.4818 58.2924 19.1994C58.2924 20.917 57.2046 22.0048 55.6301 22.0048ZM66.5648 24.4094C69.4417 24.4094 71.7747 22.1479 71.7747 19.1994C71.7747 16.2509 69.4417 13.9894 66.5648 13.9894C63.6878 13.9894 61.3548 16.2509 61.3548 19.1994C61.3548 22.1479 63.6878 24.4094 66.5648 24.4094ZM66.5648 22.1765C64.9331 22.1765 63.6449 20.9885 63.6449 19.1994C63.6449 17.4103 64.9331 16.2223 66.5648 16.2223C68.1965 16.2223 69.4846 17.4103 69.4846 19.1994C69.4846 20.9885 68.1965 22.1765 66.5648 22.1765ZM74.6776 24.209H77.2826L78.9143 18.2977L80.546 24.209H83.151L85.9134 14.1898H83.5088L81.7769 21.2032L79.8446 14.1898H77.9839L76.0517 21.2032L74.3198 14.1898H71.9152L74.6776 24.209ZM92.4981 14.1898V19.6288L88.6336 14.1898H86.916V24.209H89.2061V18.77L93.0706 24.209H94.7882V14.1898H92.4981ZM98.7947 22.0048V14.1898H96.5046V24.209H102.373V22.0048H98.7947ZM107.589 24.4094C110.466 24.4094 112.799 22.1479 112.799 19.1994C112.799 16.2509 110.466 13.9894 107.589 13.9894C104.712 13.9894 102.379 16.2509 102.379 19.1994C102.379 22.1479 104.712 24.4094 107.589 24.4094ZM107.589 22.1765C105.957 22.1765 104.669 20.9885 104.669 19.1994C104.669 17.4103 105.957 16.2223 107.589 16.2223C109.221 16.2223 110.509 17.4103 110.509 19.1994C110.509 20.9885 109.221 22.1765 107.589 22.1765ZM120.094 24.209H122.599L119.193 14.1898H116.273L112.866 24.209H115.371L115.872 22.6345H119.593L120.094 24.209ZM116.559 20.4876L117.733 16.8091L118.906 20.4876H116.559ZM127.461 14.1898H123.454V24.209H127.461C130.224 24.209 132.328 22.0334 132.328 19.1994C132.328 16.3654 130.224 14.1898 127.461 14.1898ZM127.461 22.0048H125.744V16.394H127.461C129.036 16.394 130.123 17.4818 130.123 19.1994C130.123 20.917 129.036 22.0048 127.461 22.0048Z" fill="white"/>
<path d="M31.2729 28.8575C25.7834 28.8575 21.3335 24.4077 21.3335 18.9182C21.3335 13.4286 25.7834 8.97876 31.2729 8.97876C36.7624 8.97876 41.2123 13.4286 41.2123 18.9182C41.2063 24.4047 36.7594 28.8516 31.2729 28.8575ZM27.0258 21.6883C26.8976 21.6883 26.7703 21.7042 26.6451 21.734L26.496 21.7747L25.9056 22.7856C25.7978 22.9655 25.7631 23.1799 25.8089 23.3846C25.8546 23.5893 25.9772 23.7686 26.1514 23.8854C26.3255 24.0023 26.5379 24.0478 26.7447 24.0126C26.9514 23.9773 27.1368 23.864 27.2623 23.696L27.324 23.6036L28.1092 22.2409C27.9819 22.0707 27.817 21.9322 27.6273 21.8364C27.4377 21.7405 27.2284 21.6898 27.0158 21.6883H27.0258ZM32.4766 15.5984C32.1673 15.8889 31.9623 16.2731 31.8931 16.6917C31.7823 17.2689 31.8885 17.8667 32.1913 18.3705L35.2129 23.6046C35.318 23.7815 35.4857 23.9126 35.6828 23.9718C35.8799 24.0311 36.0921 24.0142 36.2774 23.9246C36.4621 23.8335 36.6057 23.676 36.6794 23.4837C36.7531 23.2913 36.7515 23.0782 36.6749 22.887L36.6262 22.7876L35.8311 21.405H37.0139C37.221 21.4033 37.4198 21.323 37.5701 21.1804C37.7203 21.0379 37.8109 20.8436 37.8235 20.6368C37.8361 20.4301 37.7698 20.2262 37.638 20.0664C37.5062 19.9066 37.3187 19.8028 37.1133 19.7759L37.0139 19.77H34.8869L32.7062 15.993L32.4785 15.5954L32.4766 15.5984ZM25.5677 19.763C25.4609 19.7633 25.3552 19.7846 25.2566 19.8258C25.1581 19.8669 25.0686 19.9271 24.9933 20.003C24.9181 20.0788 24.8585 20.1687 24.8181 20.2675C24.7776 20.3664 24.7571 20.4722 24.7576 20.579C24.7576 20.9905 25.0638 21.3384 25.4723 21.3911L25.5717 21.396H33.0063C33.0886 21.2308 33.13 21.0483 33.1271 20.8637C33.1241 20.6792 33.0769 20.498 32.9894 20.3355C32.915 20.1833 32.8041 20.0518 32.6666 19.9528C32.5291 19.8537 32.3692 19.7903 32.2012 19.768L32.081 19.762H29.5454L33.052 13.69C33.16 13.5018 33.1893 13.2785 33.1335 13.0688C33.0938 12.9216 33.0139 12.7885 32.9026 12.6843C32.7913 12.5801 32.6532 12.509 32.5037 12.4791C32.3543 12.4491 32.1994 12.4615 32.0566 12.5147C31.9138 12.568 31.7887 12.6601 31.6953 12.7806L31.6337 12.872L31.2729 13.5022L30.9161 12.872C30.8109 12.6948 30.643 12.5636 30.4457 12.5043C30.2484 12.4451 30.036 12.4621 29.8506 12.552C29.6659 12.6435 29.5225 12.8011 29.4488 12.9936C29.3751 13.1861 29.3766 13.3992 29.453 13.5906L29.5017 13.69L30.3267 15.1412L27.6579 19.763H25.5677Z" fill="white"/>
</svg>
