<svg width="255" height="183" viewBox="0 0 255 183" fill="none" xmlns="http://www.w3.org/2000/svg">
<g filter="url(#filter0_d_41_67584)">
<path d="M55.381 168.038C50.2196 157.869 40.6856 133.75 64.5821 94.416C88.4787 55.0824 148.436 59.6517 172.333 75.027C196.229 90.4023 207.9 110.285 210.37 131.218C212.778 152.15 202.304 168.038 202.304 168.038H55.381Z" fill="#75BF7A"/>
<path d="M231.797 105.901H204.257C202.528 105.901 201.169 104.543 201.169 102.814V89.044C201.169 87.315 202.528 85.9565 204.257 85.9565H231.797C233.525 85.9565 234.884 87.315 234.884 89.044V102.814C234.884 104.543 233.464 105.901 231.797 105.901Z" fill="#75BF7A"/>
<path d="M218.027 113.743L222.35 103.369H213.643L218.027 113.743Z" fill="#75BF7A"/>
<path d="M217.903 92.5634H225.807V93.6749L229.635 91.4519L225.807 89.229V90.4022H217.903V92.5634Z" fill="#263238"/>
<path d="M229.635 97.0707H221.732V95.8975L217.903 98.1821L221.732 100.405V99.2319H229.635V97.0707Z" fill="white"/>
<path d="M213.026 99.1082L212.655 99.2317C212.655 99.2317 211.482 97.8732 210.864 96.453C210.247 94.9711 210.247 93.2421 210.247 93.2421L210.494 93.1186L208.827 89.105C208.518 89.352 208.271 89.6607 208.024 90.0312C207.098 91.6367 207.159 94.0448 208.147 96.453C209.074 98.8612 210.123 100.961 211.976 102.319C213.087 103.122 214.014 103.245 214.755 103.122L213.026 99.1082Z" fill="#263238"/>
<path d="M214.26 98.6147L213.766 98.8L215.495 102.875C215.68 102.814 215.866 102.752 215.989 102.628C216.421 102.381 216.607 101.887 216.421 101.393L215.557 99.1705C215.31 98.6765 214.754 98.4295 214.26 98.6147Z" fill="#263238"/>
<path d="M210.185 88.4262C210 88.488 209.753 88.6115 209.506 88.735L211.235 92.8104L211.791 92.5634C212.285 92.3781 212.532 91.7607 212.346 91.2667L211.42 88.982C211.235 88.488 210.679 88.241 210.185 88.4262Z" fill="#263238"/>
<path d="M55.6288 171.292V125.29C55.6288 125.29 55.1348 112.878 61.6183 109.297C68.1636 105.715 95.5798 107.63 95.5798 107.63V171.23H55.6288V171.292Z" fill="#75BF7A"/>
<path d="M104.225 64.5918C104.225 64.5918 102.558 78.5469 101.94 79.6583C101.323 80.8316 101.323 80.8316 101.323 80.8316L98.1118 82.9927C98.1118 82.9927 104.225 91.6992 111.758 93.0577C119.291 94.4779 118.674 89.9703 118.674 89.9703L117.501 87.5621L119.044 74.2863C119.044 74.348 105.336 68.0497 104.225 64.5918Z" fill="#FF9D8C"/>
<path d="M94.0977 84.1661L99.0993 82.0049C99.0993 82.0049 102.31 87.2535 109.72 90.2791C117.13 93.3048 117.253 91.5758 117.624 90.2791C117.994 88.9824 117.5 87.624 117.5 87.624L118.056 83.1781L121.02 84.1661L131.27 167.341L104.842 168.638L94.0977 84.1661Z" fill="white"/>
<path d="M118.55 83.2397C118.55 83.2397 120.341 87.3769 122.008 97.0713C123.675 106.766 125.219 123.129 125.59 134.367C125.96 145.605 126.207 171.293 126.207 171.293C126.207 171.293 159.181 171.293 159.551 171.293C159.922 171.293 162.206 158.634 162.206 158.634C162.206 158.634 147.634 146.161 146.893 144.123C146.399 142.765 146.646 117.51 144.485 105.901C142.323 94.2927 139.483 91.9462 133.617 89.0441C127.504 86.0184 118.55 83.2397 118.55 83.2397Z" fill="#263238"/>
<path d="M135.901 156.658C135.716 156.658 135.593 156.534 135.593 156.349C135.593 155.423 135.407 142.456 135.284 129.921C135.099 117.386 134.975 104.419 134.975 103.493C134.975 103.308 135.099 103.184 135.284 103.184C135.469 103.184 135.593 103.308 135.593 103.493C135.593 104.419 135.778 117.386 135.901 129.921C136.087 142.456 136.21 155.423 136.21 156.349C136.21 156.534 136.087 156.658 135.901 156.658Z" fill="#263238"/>
<path d="M69.4609 153.509L69.2139 171.293H108.053C108.053 171.293 109.721 156.226 109.103 154.806C108.424 153.386 69.4609 153.509 69.4609 153.509Z" fill="#263238"/>
<path d="M112.685 79.2873C114.29 80.5841 116.451 81.572 118.119 82.1895L119.045 74.2857C119.045 74.2857 108.795 69.5929 105.275 66.0732C106.016 70.0869 107.807 75.3972 112.685 79.2873Z" fill="#263238"/>
<path d="M131.024 38.6568C131.024 38.6568 133.679 43.2262 134.234 48.907C134.728 54.5261 134.234 68.9752 129.665 75.0882C125.096 81.2013 115.463 79.4106 111.141 75.7057C107.127 72.3096 103.237 68.5429 102.187 61.1331C101.137 53.7234 104.348 39.6448 113.425 36.7426C122.502 33.8404 131.024 38.6568 131.024 38.6568Z" fill="#FF9D8C"/>
<path d="M142.57 163.265C142.57 163.265 142.138 163.265 141.459 163.265C141.273 163.265 141.088 163.265 140.965 163.265C140.285 163.265 139.483 163.203 138.68 163.203C138.495 163.203 138.31 163.203 138.124 163.203C137.322 163.203 136.642 163.265 135.963 163.265C135.84 163.265 135.654 163.265 135.469 163.265C135.407 163.265 135.346 163.265 135.284 163.265C134.913 163.203 134.852 163.141 134.419 162.956C133.925 162.709 126.886 161.165 121.144 161.165C115.463 161.165 110.338 161.597 109.473 160.857C108.609 160.177 108.115 152.953 112.993 152.521L118.982 154.805C118.982 154.805 132.629 153.2 137.692 156.905C142.694 160.548 142.57 163.265 142.57 163.265Z" fill="#FF9D8C"/>
<path d="M135.963 163.203C135.84 163.203 135.655 163.203 135.469 163.203C135.346 163.018 135.099 162.648 134.975 162.524C133.432 160.919 129.727 159.931 128.368 159.622C128.245 159.56 128.183 159.498 128.183 159.313C128.183 159.19 128.307 159.128 128.492 159.128C130.468 159.622 134.667 160.795 135.84 162.833C135.778 162.895 135.902 163.08 135.963 163.203Z" fill="#263238"/>
<path d="M138.618 163.203C138.433 163.203 138.248 163.203 138.063 163.203C136.395 160.116 133.617 159.251 130.221 158.14L130.035 158.078C129.912 158.016 129.85 157.893 129.912 157.769C129.974 157.646 130.097 157.584 130.221 157.646L130.406 157.708C133.987 158.819 136.889 159.745 138.618 163.203Z" fill="#263238"/>
<path d="M141.459 163.265C141.274 163.265 141.088 163.265 140.903 163.265C139.853 161.104 136.519 157.522 132.011 156.658C131.888 156.658 131.826 156.534 131.826 156.411C131.826 156.287 131.95 156.226 132.073 156.226C136.704 157.09 140.409 160.857 141.459 163.265Z" fill="#263238"/>
<path d="M105.213 54.8352C105.213 54.8352 108.053 53.4767 110.029 49.7101C112.005 45.9434 111.758 42.5473 111.758 42.5473C111.758 42.5473 115.34 41.9915 120.712 43.597C126.084 45.2024 132.444 47.3636 137.816 44.2762C143.188 41.1888 143.188 36.3107 140.533 34.273C137.569 31.9883 131.765 33.4086 131.765 33.4086C131.765 33.4086 133.988 31.2474 132.814 29.9507C131.579 28.6539 127.195 30.3211 127.195 30.3211C127.195 30.3211 121.823 26.0605 111.697 26.5545C101.57 27.0485 96.6918 34.1495 96.136 42.0533C95.5803 49.9571 98.4207 57.9226 98.4207 57.9226L105.213 54.8352Z" fill="#263238"/>
<path d="M125.837 56.7492C125.281 58.1694 125.281 59.8366 125.158 61.3186C125.034 62.4918 124.849 63.8503 125.899 64.653C126.393 65.0235 128.863 66.0732 127.566 66.8759C127.072 67.1847 126.269 67.1229 125.775 67.0612C125.405 67.0612 125.034 66.9994 124.664 66.9994C124.293 66.9994 123.861 66.8759 123.49 66.8759C123.243 66.8759 123.182 67.1847 123.367 67.3082C123.984 67.7404 124.972 67.8639 125.713 67.8639C126.454 67.8639 126.948 67.8639 127.628 67.4934C128.06 67.3082 128.43 66.9994 128.492 66.5054C128.554 65.9497 128.122 65.4557 127.751 65.147C127.257 64.7765 126.701 64.5912 126.207 64.2825C125.528 63.7885 125.59 62.9858 125.652 62.2448C125.775 60.4541 126.207 58.6634 126.331 56.811C126.331 56.564 125.899 56.564 125.837 56.7492Z" fill="#263238"/>
<path d="M131.085 61.0099C130.9 62.0596 130.097 62.8624 129.356 62.7389C128.554 62.6154 128.121 61.6274 128.307 60.5159C128.492 59.4662 129.295 58.6635 130.036 58.787C130.777 58.9722 131.271 59.9602 131.085 61.0099Z" fill="#263238"/>
<path d="M121.267 60.1451C121.082 61.3183 120.279 62.121 119.415 61.9975C118.55 61.874 118.056 60.8243 118.241 59.6511C118.427 58.4779 119.229 57.6752 120.094 57.7987C120.958 57.9221 121.452 58.9719 121.267 60.1451Z" fill="#263238"/>
<path d="M128.8 56.564C129.418 56.6875 129.973 56.564 130.591 56.6257C130.714 56.6257 130.9 56.6875 131.023 56.6875C131.147 56.6875 130.838 56.6875 130.961 56.6875H131.023C131.085 56.6875 131.147 56.6875 131.27 56.7492C131.394 56.811 131.517 56.811 131.641 56.8727C131.764 56.8727 131.888 56.9345 132.011 56.9345C132.073 56.9345 132.135 56.9345 132.196 56.9345C132.135 56.9345 132.135 56.9345 132.073 56.9345H132.32C132.69 56.8727 132.876 56.4405 132.752 56.1318C132.752 56.0083 132.69 55.9465 132.629 55.8848C132.629 55.823 132.567 55.823 132.567 55.7613L132.629 55.823C132.629 55.7613 132.567 55.7613 132.567 55.6995C132.505 55.6378 132.505 55.576 132.443 55.576C132.382 55.5143 132.32 55.5143 132.32 55.4525C132.135 55.329 131.949 55.2673 131.764 55.2055C131.394 55.1438 131.023 55.082 130.653 55.082C130.282 55.082 129.912 55.1438 129.541 55.1438C129.232 55.2055 128.862 55.2673 128.615 55.5143C128.43 55.6378 128.306 55.8848 128.306 56.1318C128.368 56.317 128.553 56.564 128.8 56.564Z" fill="#263238"/>
<path d="M121.946 54.8971C121.884 54.8353 121.761 54.8353 121.699 54.7736C121.637 54.7118 121.452 54.6501 121.576 54.7118C121.514 54.7118 121.452 54.6501 121.39 54.6501C121.143 54.5266 120.896 54.4648 120.649 54.4031C120.094 54.2796 119.476 54.2178 118.859 54.2796C118.241 54.3413 117.624 54.5266 117.068 54.8353C117.006 54.8971 116.883 54.9588 116.821 55.0206C116.759 55.0823 116.759 55.1441 116.697 55.2058C116.697 55.2058 116.697 55.1441 116.759 55.1441C116.574 55.2676 116.512 55.4528 116.512 55.6381C116.512 55.8233 116.636 56.0085 116.759 56.0703C116.944 56.1938 117.191 56.132 117.377 56.0703C117.253 56.0703 117.191 56.0703 117.068 56.0703C117.253 56.0703 117.377 56.132 117.562 56.0703C117.562 56.0703 117.747 56.0085 117.624 56.0703C117.5 56.0703 117.809 56.0703 117.809 56.0703C117.871 56.0703 118.056 56.0703 117.809 56.0703C117.871 56.0703 117.871 56.0703 117.932 56.0703C118.056 56.0703 118.118 56.0703 118.241 56.0085C118.673 55.9468 119.106 55.9468 119.476 55.9468C119.847 55.9468 120.279 55.9468 120.649 55.9468C120.835 55.9468 120.958 55.9468 121.143 55.9468C121.267 55.9468 121.205 55.9468 121.143 55.9468C121.205 55.9468 121.205 55.9468 121.267 55.9468C121.329 55.9468 121.39 56.0085 121.452 56.0085C121.699 56.132 122.07 55.885 122.131 55.6381C122.317 55.3293 122.255 55.0206 121.946 54.8971Z" fill="#263238"/>
<path d="M125.034 72.6182C125.589 71.445 126.701 70.5805 127.936 70.0248C126.886 69.9013 121.823 69.469 120.526 70.1483C119.106 70.951 120.773 74.2237 123.737 74.4089C124.046 74.4089 124.354 74.4089 124.601 74.3471C124.601 73.7914 124.725 73.1739 125.034 72.6182Z" fill="#263238"/>
<path d="M101.631 65.7652C101.631 65.7652 102.125 67.7411 105.089 70.0258C108.053 72.3105 112.314 73.9777 112.314 73.9777L112.684 72.4957C112.684 72.4957 108.3 70.5816 106.262 68.4821C104.225 66.3827 103.978 65.2095 103.978 65.2095L101.631 65.7652Z" fill="#263238"/>
<path d="M113.178 71.4453C115.525 71.3218 116.883 73.1743 117.007 74.4092C117.192 75.6442 116.019 77.0027 113.364 75.7677C110.091 74.2857 110.77 71.5688 113.178 71.4453Z" fill="#263238"/>
<path d="M103.484 51.1301C103.484 51.1301 104.534 43.7821 109.412 38.7805C118.797 29.2713 126.763 29.827 126.763 29.827C126.763 29.827 126.701 28.4685 123.676 27.4806C120.835 26.4926 119.6 27.0483 119.6 27.0483C119.6 27.0483 111.882 27.6658 105.336 34.8904C98.791 42.1149 98.1118 51.3154 98.1118 51.3154L103.484 51.1301Z" fill="#263238"/>
<path d="M102.804 50.2659C96.6295 49.2162 93.2334 54.0326 92.9864 58.9107C92.7394 63.7888 96.259 67.4319 100.952 67.0614C111.573 66.197 110.338 51.5009 102.804 50.2659Z" fill="white"/>
<path d="M99.7167 62.307C98.1113 62.307 96.6911 61.5042 95.9501 60.084C95.0856 58.5403 95.2091 56.6261 96.1353 55.2677C96.1971 55.1442 96.3206 55.1442 96.4441 55.2059C96.5676 55.2677 96.5676 55.4529 96.5058 55.5147C95.6413 56.7496 95.5796 58.4786 96.3206 59.837C97.0615 61.1337 98.2965 61.8747 99.8402 61.8747C101.26 61.813 102.434 61.1955 103.175 60.084C104.039 58.7873 104.224 56.9966 103.669 55.5764C103.113 54.0945 101.631 53.1065 100.211 53.2917C100.087 53.2917 99.9637 53.23 99.9637 53.1065C99.9637 52.983 100.025 52.8595 100.149 52.8595C101.754 52.6742 103.483 53.724 104.101 55.3912C104.718 56.9966 104.471 58.9108 103.545 60.331C102.681 61.566 101.384 62.307 99.8402 62.3687C99.8402 62.307 99.7785 62.307 99.7167 62.307Z" fill="#263238"/>
<path d="M95.2715 82.3745C95.2715 82.3745 76.6235 86.9439 70.0782 94.3537C63.5329 101.763 60.5072 138.318 60.3837 145.049C60.2602 151.841 64.9531 154.62 67.7935 156.534C70.6339 158.448 82.9836 161.906 92.9868 162.4C102.928 162.894 112.376 162.4 112.376 162.4C112.376 162.4 112.314 160.239 113.858 157.028C115.278 154.064 117.069 153.447 117.069 153.447L108.486 150.359C108.486 150.359 107.004 123.499 104.657 110.47C102.064 95.6504 95.2715 82.3745 95.2715 82.3745Z" fill="#263238"/>
<path d="M126.207 146.161C126.146 146.161 126.146 146.161 126.084 146.161C125.899 146.099 125.837 145.914 125.899 145.729C127.628 141.777 129.48 134.058 130.468 128.624L130.53 128.192C130.839 126.587 131.209 124.611 130.468 123.252C130.098 122.573 129.171 121.029 128.369 119.547C127.504 118.004 126.64 116.584 126.454 116.151C126.022 115.287 127.442 113.064 129.48 110.038C130.036 109.236 130.53 108.495 130.777 108.001C131.518 106.766 131.024 105.592 130.468 104.234L130.283 103.802C129.789 102.567 129.171 101.27 128.616 100.097C128.369 99.6028 128.183 99.1088 127.936 98.6148C127.628 97.9356 127.319 97.2564 127.01 96.5771C125.219 92.5635 123.367 88.3646 120.959 84.351C120.897 84.2275 120.897 84.0423 121.082 83.9188C121.206 83.857 121.391 83.857 121.515 84.0423C123.923 88.1176 125.775 92.2548 127.628 96.3301C127.936 97.0094 128.245 97.6886 128.554 98.3678C128.801 98.8618 128.986 99.3558 129.233 99.8498C129.789 101.085 130.406 102.32 130.9 103.616L131.086 104.049C131.641 105.407 132.259 106.827 131.394 108.371C131.086 108.865 130.592 109.606 130.036 110.409C128.986 112.014 126.763 115.349 127.072 115.904C127.319 116.337 128.122 117.757 128.986 119.239C129.851 120.721 130.715 122.203 131.086 122.944C131.95 124.487 131.579 126.648 131.209 128.316L131.147 128.748C130.777 130.724 128.801 140.851 126.516 145.976C126.393 146.099 126.331 146.161 126.207 146.161Z" fill="#263238"/>
<path d="M107.991 147.273C107.93 147.273 107.806 147.273 107.744 147.211C106.262 145.729 99.2848 133.626 98.7908 131.342C98.4821 130.107 99.223 126.958 99.9023 123.87C100.458 121.524 101.014 119.054 100.828 118.375C100.581 117.387 98.7908 115.905 97.0619 114.484C94.9624 112.756 92.8012 111.027 92.369 109.421C91.875 107.63 92.3072 96.2688 92.5542 88.7972C92.6777 86.0803 92.7395 83.9809 92.7395 83.2399C92.7395 83.0546 92.863 82.9312 93.0482 82.9312C93.2335 82.9312 93.357 83.0546 93.357 83.2399C93.357 83.9809 93.2952 86.1421 93.1717 88.859C92.9247 95.8365 92.4925 107.569 92.9247 109.298C93.2952 110.718 95.4564 112.447 97.3706 114.052C99.2848 115.596 101.075 117.078 101.322 118.251C101.508 119.054 101.014 121.339 100.396 123.994C99.7788 126.834 99.0378 130.107 99.2848 131.218C99.7788 133.441 106.695 145.359 108.115 146.779C108.238 146.902 108.238 147.087 108.115 147.211C108.115 147.211 108.053 147.273 107.991 147.273Z" fill="#263238"/>
<path d="M82.86 141.962C82.6748 141.962 82.5513 141.777 82.5513 141.591C82.7983 139.986 86.3179 108 86.5031 105.53C86.5031 105.345 86.6884 105.222 86.8119 105.222C86.9971 105.222 87.1206 105.407 87.1206 105.53C86.9354 108 83.4157 139.986 83.1688 141.591C83.1688 141.838 83.0453 141.962 82.86 141.962Z" fill="#263238"/>
<path d="M108.3 150.669C108.238 150.669 108.238 150.669 108.177 150.669C107.374 150.36 103.916 149.187 99.532 147.705C90.6402 144.741 78.5376 140.604 76.1912 139.431C76.0677 139.369 76.0059 139.184 76.0677 138.998C76.1294 138.875 76.3147 138.813 76.4999 138.875C78.7846 140.048 91.3812 144.309 99.7172 147.149C104.101 148.631 107.621 149.804 108.424 150.113C108.609 150.175 108.671 150.36 108.609 150.545C108.547 150.607 108.424 150.669 108.3 150.669Z" fill="#263238"/>
<path d="M104.04 163.388C96.2598 163.388 81.1315 161.968 69.6464 157.893C69.4611 157.831 69.3994 157.646 69.4611 157.522C69.5229 157.337 69.7081 157.275 69.8316 157.337C84.3424 162.462 104.658 163.327 108.424 162.524C108.609 162.462 108.733 162.586 108.795 162.771C108.856 162.956 108.733 163.08 108.548 163.141C107.745 163.265 106.14 163.388 104.04 163.388Z" fill="#263238"/>
<path d="M14.7521 86.6971C17.1603 88.8583 20.2477 90.2168 22.3471 92.6867C23.2116 93.6747 23.9526 94.6626 24.6935 95.7123C25.2493 96.4533 26.793 97.6883 27.04 98.6145C27.1635 99.0467 27.1017 98.491 27.04 98.0588V97.997C26.8547 96.1446 26.6695 94.2304 26.6077 92.3162C26.546 90.402 26.6695 88.5496 26.546 86.6354C26.3607 83.9802 25.558 81.3868 23.3968 79.7196C22.3471 78.9169 20.9886 78.4229 20.0007 77.4966C19.0744 76.6322 19.4449 75.6442 20.0007 74.718C20.4947 73.7917 21.1121 72.9273 21.3591 71.9393C21.6061 70.7661 21.1739 69.5311 20.5564 68.5432C19.3214 66.4437 16.481 64.0355 13.8259 64.3443C11.6029 64.5913 11.3559 67.1847 11.4177 68.9754C11.4177 70.7043 11.6029 72.4333 11.6647 74.1622C11.6647 75.9529 11.3559 77.6819 11.3559 79.4726C11.1089 82.4365 12.5291 84.7212 14.7521 86.6971Z" fill="#75BF7A"/>
<path d="M37.2279 114.361C37.9072 112.755 38.6481 111.273 39.6361 109.791C40.9328 107.754 42.4148 105.839 43.2793 103.555C44.1437 101.27 44.0202 98.8002 44.1437 96.392C44.2055 94.6013 44.7612 92.8723 44.576 91.0816C44.5142 90.2172 44.0202 88.8587 42.9088 88.9822C42.0443 89.1057 41.5503 90.1554 41.1798 90.8347C40.6241 92.0079 40.1918 93.3046 39.7596 94.5395C39.5744 95.0335 39.4509 95.5275 39.2039 96.0215C39.0804 96.2685 38.7099 96.9477 38.3394 96.886C37.7219 96.7007 38.2776 94.169 38.4011 93.7368C38.8951 91.4521 39.5744 89.3527 39.6979 87.0063C39.8214 83.6101 39.5744 79.5347 36.24 77.6823C35.3755 77.1883 34.264 76.8796 33.4613 77.6205C32.6586 78.3615 32.4116 79.5965 32.2881 80.5845C31.9176 83.7336 32.6586 86.6975 33.6465 89.6614C34.4493 92.1314 35.4372 94.6013 35.5607 97.2565C35.6225 99.7881 34.3258 102.011 33.7083 104.357C32.7203 108.124 32.9056 110.162 32.9056 111.397C32.9056 112.94 32.9673 114.422 33.0908 115.966C33.2143 117.386 33.3378 118.807 33.4613 120.165C33.523 120.474 33.523 120.721 33.5848 121.029C33.0291 119.733 32.8438 118.251 32.4116 116.954C31.6089 114.608 30.6826 112.385 29.9417 110.038C29.3242 108.124 28.7067 106.148 27.904 104.296C27.1012 102.567 26.175 100.714 24.6931 99.4176C23.8286 98.6149 22.7171 98.1827 21.5439 98.1827C20.8029 98.1827 20.1237 98.4297 19.3827 98.6149C18.5182 98.8619 17.7773 98.7384 17.098 98.1827C14.6899 96.3302 14.0106 93.0576 12.2199 90.7729C10.9232 89.044 7.77406 86.08 5.48938 87.9942C4.25442 88.9822 3.94568 90.9581 4.00742 92.4401C4.06917 94.2925 4.8719 96.0215 5.85987 97.5652C6.90959 99.2324 8.2063 100.714 9.19427 102.382C9.75 103.37 9.81175 104.357 9.75 105.469C9.68825 106.519 9.56476 107.568 9.93525 108.618C11.0467 111.706 14.4429 111.273 17.098 111.335C18.9505 111.397 20.9264 111.644 22.7171 112.261C24.7548 112.94 26.0515 114.299 26.7925 116.275C27.3482 117.757 27.5952 119.362 28.5832 120.659C29.0772 121.215 29.6947 121.647 30.3739 121.956C31.4236 122.388 34.5728 122.635 34.5728 122.326C34.6345 121.338 35.1285 120.35 35.3755 119.424C35.9312 117.695 36.5487 116.028 37.2279 114.361Z" fill="#75BF7A"/>
<path d="M51.8623 113.743C51.6153 111.952 51.6153 110.038 50.8126 108.371C50.7508 108.247 50.5656 108.247 50.5038 108.309C49.8863 108.618 49.8863 109.606 49.8246 110.223C49.7628 111.211 49.8246 112.199 49.7011 113.187C49.5159 114.916 49.0836 116.707 48.4661 118.312C47.7869 120.165 46.4902 121.214 44.6377 121.77C43.4645 122.141 42.2913 122.449 41.3033 123.252C40.4389 123.931 39.8214 124.919 39.3274 125.969C38.0924 128.748 37.475 131.835 36.9192 134.861C36.5487 136.837 36.24 138.874 35.746 140.85C35.252 142.826 34.758 144.802 34.4493 146.84C34.3876 146.963 34.3258 147.025 34.3258 147.149C34.2023 147.457 34.6963 147.643 34.8198 147.334C36.734 144.37 39.0804 141.715 42.2913 140.109C43.7115 139.368 45.6257 139.245 46.8607 138.072C47.7869 137.207 47.9104 135.849 47.7869 134.676C47.6017 133.132 46.8607 131.835 46.058 130.477C45.6257 129.736 45.1317 128.933 45.317 128.069C45.5022 127.204 46.1814 126.587 46.8607 126.154C48.1574 125.352 49.7628 124.981 50.8126 123.746C51.8005 122.635 52.3563 121.276 52.4798 119.794C52.5415 117.818 52.171 115.719 51.8623 113.743Z" fill="#75BF7A"/>
<path d="M25.743 123.931C24.0758 121.77 21.9764 119.856 19.6917 118.312C18.4568 117.509 15.5546 115.904 14.9989 118.312C14.6284 119.732 16.0486 121.091 16.9131 122.017C18.2715 123.314 19.877 124.487 20.9884 126.03C19.5682 126.463 18.0863 126.586 16.8513 127.574C15.3694 128.747 14.7519 130.97 16.1721 132.39C16.8513 133.07 17.8393 133.502 18.7038 133.934C19.877 134.49 20.9884 134.984 22.1617 135.478C24.6933 136.528 27.2868 137.639 29.4479 139.368C31.6709 141.159 33.7086 144.123 33.8938 147.025C33.8938 147.272 33.8321 147.025 33.9556 146.901C34.0173 146.963 34.326 146.84 34.326 146.654C34.2643 142.394 33.5233 138.318 31.7326 134.366C30.1889 130.785 28.1512 127.08 25.743 123.931Z" fill="#75BF7A"/>
<path d="M19.8768 84.1036C20.803 86.0178 21.791 87.932 22.8407 89.8462C23.8286 91.6369 24.8166 93.4894 25.5576 95.4036C26.4838 97.8117 27.41 100.158 28.398 102.505C29.386 104.975 30.3122 107.506 31.0532 110.038C32.4734 115.039 33.5231 120.165 34.0171 125.351C34.2641 128.007 34.3876 130.6 34.3258 133.255C34.2641 135.293 34.0171 137.392 33.8318 139.43C33.6466 141.591 33.4614 143.752 33.6466 145.852C33.7701 147.642 34.0788 149.804 35.499 151.039C35.746 151.286 36.1783 150.977 35.993 150.668C34.3258 147.272 34.4493 143.567 34.7581 139.924C34.9433 137.886 35.1903 135.849 35.2521 133.811C35.3138 131.217 35.252 128.624 35.0051 126.031C34.5111 120.967 33.5231 115.966 32.2264 111.026C31.5472 108.494 30.7444 106.024 29.7565 103.616C28.7685 101.208 27.657 98.7997 26.7308 96.3915C25.0636 91.9457 22.4702 88.0555 20.1855 83.9184C20.062 83.6714 19.7533 83.8566 19.8768 84.1036Z" fill="#263238"/>
<path d="M34.1406 120.288C34.3876 117.078 34.6964 113.99 35.8078 110.903C36.3018 109.483 36.9193 108.062 37.4133 106.642C37.8455 105.469 38.4012 103.802 38.0925 102.567C38.0308 102.443 37.8455 102.443 37.7838 102.567C37.5985 103.308 37.5985 104.11 37.475 104.851C37.3515 105.592 37.1045 106.272 36.9193 106.951C36.4253 108.433 35.8078 109.853 35.2521 111.335C34.2024 114.175 33.6466 117.325 33.8936 120.35C33.8936 120.412 34.0789 120.412 34.1406 120.288Z" fill="#263238"/>
<path d="M15.4305 101.763C16.7272 104.851 20.5556 105.036 23.3343 105.715C25.3102 106.209 26.7922 107.568 27.8419 109.297C29.0151 111.211 29.8178 113.434 30.4353 115.533H30.4971C29.6944 111.828 28.5829 107.383 24.7545 105.654C21.6671 104.295 17.6535 104.974 15.6775 101.64C15.6775 101.455 15.3688 101.578 15.4305 101.763Z" fill="#263238"/>
<path d="M32.1028 119.794C32.2263 119.979 32.4116 120.226 32.5351 120.411C32.5968 120.535 32.7203 120.597 32.7821 120.658C32.9056 120.72 33.0291 120.844 33.1526 120.844C33.2143 120.844 33.276 120.782 33.2143 120.72C33.1526 120.597 33.0291 120.535 32.9673 120.473C32.9056 120.411 32.7821 120.288 32.7203 120.226C32.5351 120.041 32.3498 119.856 32.2263 119.67C32.1028 119.732 32.0411 119.732 32.1028 119.794Z" fill="#263238"/>
<path d="M24.0756 129.612C26.2986 131.403 28.3363 133.564 29.9417 135.911C30.7444 137.022 31.4237 138.195 32.1029 139.43C32.7821 140.727 33.2761 142.147 33.8318 143.506C33.8936 143.629 34.0788 143.629 34.0788 143.506C33.7701 140.603 31.9176 138.133 30.4357 135.664C29.6947 134.429 28.7067 133.379 27.7188 132.329C26.6691 131.218 25.5576 130.23 24.3226 129.365C24.1374 129.242 23.9521 129.489 24.0756 129.612Z" fill="#263238"/>
<path d="M41.6739 126.154C40.6242 126.771 40.5625 128.439 40.5625 129.488C40.5007 131.526 41.0565 133.502 40.1302 135.416C39.3275 137.207 38.0308 138.689 36.9811 140.294C35.9931 141.838 35.0669 143.814 35.0669 145.666C35.0669 145.79 35.2521 145.852 35.2521 145.728C35.6226 144.864 35.8079 143.937 36.0549 143.073C36.3636 142.085 36.7958 141.159 37.3516 140.294C38.3395 138.75 39.5745 137.392 40.3772 135.725C41.2417 133.996 41.1182 132.267 41.0565 130.414C40.9947 129.241 40.8712 127.265 41.8592 126.401C42.0444 126.339 41.8592 126.092 41.6739 126.154Z" fill="#263238"/>
<path d="M34.573 145.913C30.3124 145.851 22.1616 145.79 22.1616 145.79L24.1993 160.794C24.6315 164.19 27.5337 166.66 30.9299 166.66H34.4495H34.82H38.3396C41.7358 166.66 44.6379 164.129 45.0702 160.794L47.1079 145.79C46.9844 145.851 38.8336 145.851 34.573 145.913Z" fill="white"/>
<path d="M241.491 118.435L217.038 166.784L145.843 167.278L167.825 117.694L241.491 118.435Z" fill="#263238"/>
<path d="M98.606 166.97V163.08H144.67L165.85 116.583H239.577L241.429 118.374H169.493L147.449 166.908C147.449 166.97 98.606 166.846 98.606 166.97Z" fill="#263238"/>
<path d="M204.504 145.111C203.701 147.519 199.317 149.371 194.748 149.248C190.178 149.124 187.091 147.087 187.894 144.679C188.696 142.27 193.08 140.418 197.65 140.541C202.281 140.665 205.307 142.703 204.504 145.111Z" fill="#263238"/>
<path d="M147.448 167.278C147.387 167.278 147.387 167.278 147.325 167.278C147.14 167.217 147.078 167.032 147.201 166.846L169.307 118.127H241.491C241.676 118.127 241.8 118.25 241.8 118.436C241.8 118.621 241.676 118.744 241.491 118.744H169.678L147.695 167.093C147.695 167.217 147.572 167.278 147.448 167.278Z" fill="white"/>
<path d="M95.3948 170.675H94.9008H10.6763V174.133H94.9008H95.3948H247.295V170.675H95.3948Z" fill="white"/>
<path d="M99.0993 166.97H6.60059V171.539H99.0993V166.97Z" fill="#263238"/>
<path d="M251 166.97H98.606V171.539H251V166.97Z" fill="#263238"/>
<path d="M74.0298 68.42H44.082C42.2295 68.42 40.7476 66.938 40.7476 65.0856V50.1425C40.7476 48.2901 42.2295 46.8081 44.082 46.8081H73.9681C75.8205 46.8081 77.3025 48.2901 77.3025 50.1425V65.0856C77.3642 66.938 75.8823 68.42 74.0298 68.42Z" fill="white"/>
<path d="M85.8856 57.6135L74.6475 52.8589V62.3681L85.8856 57.6135Z" fill="white"/>
<path d="M51.9854 59.652C53.1108 59.652 54.0231 58.7397 54.0231 57.6144C54.0231 56.489 53.1108 55.5767 51.9854 55.5767C50.8601 55.5767 49.9478 56.489 49.9478 57.6144C49.9478 58.7397 50.8601 59.652 51.9854 59.652Z" fill="#263238"/>
<path d="M59.087 59.652C60.2124 59.652 61.1247 58.7397 61.1247 57.6144C61.1247 56.489 60.2124 55.5767 59.087 55.5767C57.9616 55.5767 57.0493 56.489 57.0493 57.6144C57.0493 58.7397 57.9616 59.652 59.087 59.652Z" fill="#263238"/>
<path d="M66.1261 59.652C67.2514 59.652 68.1638 58.7397 68.1638 57.6144C68.1638 56.489 67.2514 55.5767 66.1261 55.5767C65.0007 55.5767 64.0884 56.489 64.0884 57.6144C64.0884 58.7397 65.0007 59.652 66.1261 59.652Z" fill="#263238"/>
<path d="M226.239 0.867676H157.205C152.759 0.867676 149.177 4.44907 149.177 8.89494V41.6215C149.177 46.0673 152.759 49.6487 157.205 49.6487H163.379C163.565 52.6126 163.132 57.0585 160.662 62.6776C168.628 58.9727 173.259 53.4771 175.605 49.6487H226.239C230.685 49.6487 234.266 46.0673 234.266 41.6215V8.89494C234.266 4.44907 230.685 0.867676 226.239 0.867676Z" fill="#75BF7A"/>
<path d="M196.785 16.4896H162.577C161.65 16.4896 160.848 15.7487 160.848 14.7607C160.848 13.8345 161.589 13.0317 162.577 13.0317H196.785C197.711 13.0317 198.514 13.7727 198.514 14.7607C198.514 15.6869 197.711 16.4896 196.785 16.4896Z" fill="white"/>
<path d="M221.361 26.4315H161.897C161.342 26.4315 160.848 25.9375 160.848 25.3817C160.848 24.826 161.342 24.332 161.897 24.332H221.361C221.917 24.332 222.411 24.826 222.411 25.3817C222.411 25.9375 221.917 26.4315 221.361 26.4315Z" fill="#75BF7A"/>
<path d="M221.361 32.1732H161.897C161.342 32.1732 160.848 31.6792 160.848 31.1235C160.848 30.5677 161.342 30.0737 161.897 30.0737H221.361C221.917 30.0737 222.411 30.5677 222.411 31.1235C222.411 31.7409 221.917 32.1732 221.361 32.1732Z" fill="#75BF7A"/>
<path d="M208.394 38.348H161.897C161.342 38.348 160.848 37.854 160.848 37.2983C160.848 36.7425 161.342 36.2485 161.897 36.2485H208.394C208.949 36.2485 209.443 36.7425 209.443 37.2983C209.443 37.9157 208.949 38.348 208.394 38.348Z" fill="#75BF7A"/>
<path d="M220.867 16.4896H204.503C203.577 16.4896 202.774 15.7487 202.774 14.7607C202.774 13.8345 203.515 13.0317 204.503 13.0317H220.867C221.793 13.0317 222.596 13.7727 222.596 14.7607C222.596 15.6869 221.793 16.4896 220.867 16.4896Z" fill="white"/>
<path d="M179.68 91.8221H161.156C160.477 91.8221 159.921 91.2664 159.921 90.5872V77.9288C159.921 77.2496 160.477 76.6938 161.156 76.6938H179.68C180.36 76.6938 180.915 77.2496 180.915 77.9288V90.5872C180.915 91.2664 180.421 91.8221 179.68 91.8221Z" fill="white"/>
<path d="M170.542 86.5117C170.418 86.5117 170.357 86.45 170.233 86.3882L160.168 78.0522C159.983 77.867 159.921 77.62 160.106 77.373C160.292 77.1878 160.539 77.126 160.786 77.3113L170.604 85.4003L180.175 77.126C180.36 76.9408 180.669 77.0025 180.854 77.1878C181.039 77.373 180.977 77.6817 180.792 77.867L170.974 86.45C170.789 86.45 170.665 86.5117 170.542 86.5117Z" fill="#263238"/>
<path d="M160.477 91.4515C160.353 91.4515 160.23 91.3898 160.168 91.328C159.983 91.1428 159.983 90.8341 160.168 90.6488L167.208 83.239C167.393 83.0538 167.702 83.0538 167.887 83.239C168.072 83.4243 168.072 83.733 167.887 83.9183L160.847 91.328C160.724 91.3898 160.6 91.4515 160.477 91.4515Z" fill="#263238"/>
<path d="M180.422 91.2043C180.298 91.2043 180.175 91.1426 180.113 91.0808L173.012 83.9798C172.827 83.7945 172.827 83.4858 173.012 83.3006C173.197 83.1153 173.506 83.1153 173.691 83.3006L180.73 90.3399C180.916 90.5251 180.916 90.8338 180.73 91.0191C180.607 91.1426 180.545 91.2043 180.422 91.2043Z" fill="#263238"/>
<path d="M181.904 82.375C185.314 82.375 188.079 79.6105 188.079 76.2002C188.079 72.7899 185.314 70.0254 181.904 70.0254C178.494 70.0254 175.729 72.7899 175.729 76.2002C175.729 79.6105 178.494 82.375 181.904 82.375Z" fill="#FF5F42"/>
<path d="M180.175 76.1999C180.298 76.1999 180.483 76.3234 180.607 76.4469C180.73 76.5704 180.854 76.6939 180.916 76.8791C180.977 77.0643 181.039 77.2496 181.039 77.4348C181.039 77.6818 180.977 77.9288 180.854 78.1141C180.73 78.2993 180.545 78.4846 180.298 78.608C180.051 78.7315 179.804 78.7933 179.495 78.7933C179.187 78.7933 178.94 78.7315 178.693 78.608C178.446 78.4846 178.26 78.2993 178.137 78.1141C178.013 77.9288 177.952 77.6818 177.952 77.4348C177.952 77.1878 178.013 77.0026 178.075 76.8791C178.137 76.7556 178.26 76.5704 178.384 76.4469C178.507 76.3234 178.693 76.2616 178.816 76.1381C178.693 76.0764 178.569 75.9529 178.446 75.8911C178.322 75.7676 178.26 75.6441 178.137 75.4589C178.075 75.2736 178.013 75.1501 178.013 74.9649C178.013 74.7179 178.075 74.4709 178.199 74.2857C178.322 74.1004 178.507 73.9152 178.693 73.7917C178.94 73.6682 179.125 73.6064 179.434 73.6064C179.742 73.6064 179.928 73.6682 180.175 73.7917C180.422 73.9152 180.545 74.1004 180.669 74.2857C180.792 74.4709 180.854 74.7179 180.854 74.9649C180.854 75.1501 180.792 75.3354 180.73 75.4589C180.669 75.6441 180.545 75.7676 180.422 75.8911C180.422 76.0146 180.298 76.1381 180.175 76.1999ZM179.557 78.5463C179.928 78.5463 180.236 78.4228 180.483 78.2376C180.73 78.0523 180.854 77.7436 180.854 77.4348C180.854 77.1878 180.792 77.0026 180.669 76.8791C180.545 76.6939 180.422 76.5704 180.236 76.5086C180.051 76.3851 179.866 76.3851 179.619 76.3851C179.372 76.3851 179.187 76.4469 179.001 76.5086C178.816 76.6321 178.693 76.7556 178.569 76.8791C178.446 77.0643 178.384 77.2496 178.384 77.4348C178.384 77.7436 178.507 77.9906 178.693 78.2376C178.878 78.4845 179.187 78.5463 179.557 78.5463ZM178.446 74.9649C178.446 75.2119 178.507 75.3971 178.631 75.5206C178.754 75.7059 178.878 75.8294 179.063 75.8911C179.248 75.9529 179.434 76.0146 179.619 76.0146C179.804 76.0146 179.989 75.9529 180.175 75.8911C180.36 75.8294 180.483 75.6441 180.607 75.5206C180.73 75.3354 180.792 75.1501 180.792 74.9649C180.792 74.6562 180.669 74.4092 180.483 74.1622C180.298 73.9152 179.989 73.8534 179.681 73.8534C179.372 73.8534 179.063 73.9769 178.878 74.1622C178.693 74.3474 178.446 74.6562 178.446 74.9649Z" fill="white"/>
<path d="M183.262 78.7935C183.077 78.7935 182.83 78.7318 182.644 78.67C182.459 78.6083 182.274 78.4848 182.089 78.3613L182.027 78.2995V78.2378C182.027 78.176 182.027 78.176 182.089 78.1143C182.089 78.0525 182.15 78.0525 182.212 78.0525C182.274 78.0525 182.274 78.0525 182.336 78.1143C182.459 78.2378 182.644 78.2995 182.83 78.3613C183.015 78.423 183.2 78.423 183.324 78.423C183.632 78.423 183.879 78.3613 184.126 78.2378C184.373 78.1143 184.559 77.929 184.682 77.7438C184.806 77.4968 184.867 77.2498 184.867 77.0028C184.867 76.7558 184.806 76.5088 184.682 76.2618C184.559 76.0766 184.373 75.8913 184.188 75.7678C183.941 75.6444 183.694 75.5826 183.385 75.5826C183.2 75.5826 183.015 75.5826 182.891 75.6444C182.706 75.7061 182.583 75.7679 182.521 75.8296C182.459 75.8914 182.336 75.8913 182.274 75.8913H182.212L182.15 75.8296C182.15 75.8296 182.15 75.7679 182.15 75.7061L182.521 73.6684C182.521 73.6684 182.521 73.6067 182.583 73.6067C182.644 73.6067 182.644 73.5449 182.706 73.5449H184.991C185.053 73.5449 185.053 73.5449 185.114 73.6067C185.176 73.6684 185.176 73.6684 185.176 73.7302C185.176 73.7919 185.176 73.7919 185.114 73.8537C185.053 73.9154 185.053 73.9154 184.991 73.9154H182.768L182.83 73.8537L182.459 75.7061L182.336 75.6444C182.397 75.5826 182.521 75.5209 182.644 75.5209C182.768 75.5209 182.891 75.3974 183.077 75.3974C183.262 75.3356 183.385 75.3356 183.571 75.3356C183.879 75.3356 184.188 75.3974 184.435 75.5209C184.682 75.6444 184.867 75.8296 185.053 76.0766C185.176 76.3236 185.299 76.6323 185.299 76.9411C185.299 77.3116 185.238 77.6203 185.053 77.8673C184.929 78.1143 184.682 78.3613 184.435 78.4848C183.941 78.7318 183.632 78.7935 183.262 78.7935Z" fill="white"/>
<path d="M244.147 73.9156H207.962C206.604 73.9156 205.492 72.8041 205.492 71.4457V65.7648C205.492 64.4064 206.604 63.2949 207.962 63.2949H244.147C245.505 63.2949 246.616 64.4064 246.616 65.7648V71.4457C246.616 72.8041 245.505 73.9156 244.147 73.9156Z" fill="#263238"/>
<path d="M210.555 71.384C210.37 71.384 210.246 71.3223 210.184 71.1988C210.061 71.0753 210.061 70.9518 210.061 70.7666L210.246 69.4081C210.246 69.3463 210.246 69.3463 210.246 69.3463H210.184L209.073 70.1491C208.95 70.2726 208.764 70.2726 208.641 70.2726C208.517 70.2726 208.394 70.1491 208.27 70.0256C208.147 69.8403 208.147 69.6551 208.209 69.5316C208.27 69.4081 208.394 69.2846 208.517 69.2228L209.814 68.6671C209.876 68.6671 209.876 68.6671 209.876 68.6054C209.876 68.6054 209.876 68.5436 209.814 68.5436L208.517 67.9879C208.332 67.9261 208.27 67.8026 208.209 67.6791C208.147 67.5556 208.209 67.3704 208.27 67.2469C208.332 67.1234 208.456 66.9999 208.641 66.9999C208.764 66.9999 208.95 66.9999 209.073 67.1234L210.184 67.9879C210.246 67.9879 210.246 67.9879 210.246 67.9879V67.9261L210.061 66.5677C210.061 66.3824 210.123 66.2589 210.184 66.1354C210.308 66.0119 210.431 65.9502 210.617 65.9502C210.802 65.9502 210.925 66.0119 210.987 66.1354C211.111 66.2589 211.111 66.3824 211.111 66.5677L210.925 67.9261C210.925 67.9879 210.925 67.9879 210.925 67.9879H210.987L212.099 67.1852C212.222 67.0617 212.407 67.0617 212.531 67.0617C212.716 67.0617 212.778 67.1852 212.901 67.3087C213.025 67.4939 213.025 67.6791 212.963 67.8026C212.901 67.9261 212.778 68.0496 212.654 68.1114L211.358 68.6671C211.296 68.6671 211.296 68.6671 211.296 68.7289C211.296 68.7289 211.296 68.7906 211.358 68.7906L212.654 69.3463C212.84 69.4081 212.901 69.5316 212.963 69.6551C213.025 69.7786 213.025 69.9638 212.901 70.0873C212.84 70.2108 212.716 70.3343 212.531 70.3343C212.346 70.3343 212.222 70.3343 212.099 70.2108L210.987 69.3463C210.925 69.3463 210.925 69.3463 210.925 69.3463V69.4081L211.111 70.7666C211.111 70.9518 211.111 71.0753 210.987 71.1988C210.864 71.3223 210.74 71.384 210.555 71.384Z" fill="white"/>
<path d="M218.027 71.384C217.841 71.384 217.718 71.3223 217.656 71.1988C217.533 71.0753 217.533 70.9518 217.533 70.7666L217.718 69.4081C217.718 69.3463 217.718 69.3463 217.718 69.3463H217.656L216.545 70.1491C216.421 70.2726 216.236 70.2726 216.112 70.2726C215.989 70.2726 215.865 70.1491 215.742 70.0256C215.618 69.8403 215.618 69.6551 215.68 69.5316C215.742 69.4081 215.865 69.2846 215.989 69.2228L217.286 68.6671C217.347 68.6671 217.347 68.6671 217.347 68.6054C217.347 68.6054 217.347 68.5436 217.286 68.5436L215.989 67.9879C215.804 67.9261 215.742 67.8026 215.68 67.6791C215.618 67.5556 215.68 67.3704 215.742 67.2469C215.865 67.1234 215.927 66.9999 216.112 66.9999C216.236 66.9999 216.421 66.9999 216.545 67.1234L217.656 67.9879C217.718 67.9879 217.718 67.9879 217.718 67.9879V67.9261L217.533 66.5677C217.533 66.3824 217.594 66.2589 217.656 66.1354C217.78 66.0119 217.903 65.9502 218.088 65.9502C218.274 65.9502 218.397 66.0119 218.459 66.1354C218.582 66.2589 218.582 66.3824 218.582 66.5677L218.397 67.9261C218.397 67.9879 218.397 67.9879 218.397 67.9879H218.459L219.57 67.1852C219.694 67.0617 219.879 67.0617 220.003 67.0617C220.188 67.0617 220.25 67.1852 220.373 67.3087C220.497 67.4939 220.497 67.6791 220.435 67.8026C220.373 67.9261 220.25 68.0496 220.126 68.1114L218.829 68.6671C218.768 68.6671 218.768 68.6671 218.768 68.7289C218.768 68.7289 218.768 68.7906 218.829 68.7906L220.126 69.3463C220.311 69.4081 220.373 69.5316 220.435 69.6551C220.497 69.7786 220.497 69.9638 220.373 70.0873C220.311 70.2108 220.188 70.3343 220.003 70.3343C219.817 70.3343 219.694 70.3343 219.57 70.2108L218.459 69.3463C218.397 69.3463 218.397 69.3463 218.397 69.3463V69.4081L218.582 70.7666C218.582 70.9518 218.582 71.0753 218.459 71.1988C218.335 71.3223 218.212 71.384 218.027 71.384Z" fill="white"/>
<path d="M225.498 71.384C225.313 71.384 225.189 71.3223 225.127 71.1988C225.004 71.0753 225.004 70.9518 225.004 70.7666L225.189 69.4081C225.189 69.3463 225.189 69.3463 225.189 69.3463H225.127L224.016 70.1491C223.892 70.2726 223.707 70.2726 223.584 70.2726C223.46 70.2726 223.337 70.1491 223.213 70.0256C223.09 69.8403 223.09 69.6551 223.151 69.5316C223.213 69.4081 223.337 69.2846 223.46 69.2228L224.757 68.6671C224.819 68.6671 224.819 68.6671 224.819 68.6054C224.819 68.6054 224.819 68.5436 224.757 68.5436L223.46 67.9879C223.275 67.9261 223.213 67.8026 223.151 67.6791C223.09 67.5556 223.151 67.3704 223.213 67.2469C223.275 67.1234 223.398 66.9999 223.584 66.9999C223.707 66.9999 223.892 66.9999 224.016 67.1234L225.127 67.9879C225.189 67.9879 225.189 67.9879 225.189 67.9879V67.9261L225.004 66.5677C225.004 66.3824 225.066 66.2589 225.127 66.1354C225.251 66.0119 225.374 65.9502 225.56 65.9502C225.745 65.9502 225.868 66.0119 225.93 66.1354C226.054 66.2589 226.054 66.3824 226.054 66.5677L225.868 67.9261C225.868 67.9879 225.868 67.9879 225.868 67.9879H225.93L227.042 67.1852C227.165 67.0617 227.35 67.0617 227.474 67.0617C227.659 67.0617 227.721 67.1852 227.844 67.3087C227.968 67.4939 227.968 67.6791 227.906 67.8026C227.844 67.9261 227.721 68.0496 227.597 68.1114L226.301 68.6671C226.239 68.6671 226.239 68.6671 226.239 68.7289C226.239 68.7289 226.239 68.7906 226.301 68.7906L227.597 69.3463C227.783 69.4081 227.844 69.5316 227.906 69.6551C227.968 69.7786 227.968 69.9638 227.844 70.0873C227.783 70.2108 227.659 70.3343 227.474 70.3343C227.289 70.3343 227.165 70.3343 227.042 70.2108L225.93 69.3463C225.868 69.3463 225.868 69.3463 225.868 69.3463V69.4081L226.054 70.7666C226.054 70.9518 226.054 71.0753 225.93 71.1988C225.868 71.3223 225.683 71.384 225.498 71.384Z" fill="white"/>
<path d="M233.032 71.384C232.846 71.384 232.723 71.3223 232.661 71.1988C232.538 71.0753 232.538 70.9518 232.538 70.7666L232.723 69.4081C232.723 69.3463 232.723 69.3463 232.723 69.3463H232.661L231.55 70.1491C231.426 70.2726 231.241 70.2726 231.117 70.2726C230.994 70.2726 230.87 70.1491 230.747 70.0256C230.623 69.8403 230.623 69.6551 230.685 69.5316C230.747 69.4081 230.87 69.2846 230.994 69.2228L232.291 68.6671C232.352 68.6671 232.352 68.6671 232.352 68.6054C232.352 68.6054 232.352 68.5436 232.291 68.5436L230.994 67.9879C230.809 67.9261 230.747 67.8026 230.685 67.6791C230.623 67.5556 230.685 67.3704 230.747 67.2469C230.87 67.1234 230.932 66.9999 231.117 66.9999C231.241 66.9999 231.426 66.9999 231.55 67.1234L232.661 67.9879C232.723 67.9879 232.723 67.9879 232.723 67.9879V67.9261L232.538 66.5677C232.538 66.3824 232.599 66.2589 232.661 66.1354C232.785 66.0119 232.908 65.9502 233.093 65.9502C233.279 65.9502 233.402 66.0119 233.464 66.1354C233.587 66.2589 233.587 66.3824 233.587 66.5677L233.402 67.9261C233.402 67.9879 233.402 67.9879 233.402 67.9879H233.464L234.575 67.1852C234.699 67.0617 234.884 67.0617 235.007 67.0617C235.193 67.0617 235.254 67.1852 235.378 67.3087C235.501 67.4939 235.501 67.6791 235.44 67.8026C235.378 67.9261 235.254 68.0496 235.131 68.1114L233.834 68.6671C233.773 68.6671 233.772 68.6671 233.772 68.7289C233.772 68.7289 233.773 68.7906 233.834 68.7906L235.131 69.3463C235.316 69.4081 235.378 69.5316 235.44 69.6551C235.501 69.7786 235.501 69.9638 235.378 70.0873C235.316 70.2108 235.193 70.3343 235.007 70.3343C234.822 70.3343 234.699 70.3343 234.575 70.2108L233.464 69.3463C233.402 69.3463 233.402 69.3463 233.402 69.3463V69.4081L233.587 70.7666C233.587 70.9518 233.587 71.0753 233.464 71.1988C233.34 71.3223 233.217 71.384 233.032 71.384Z" fill="white"/>
<path d="M240.503 71.384C240.317 71.384 240.194 71.3223 240.132 71.1988C240.009 71.0753 240.009 70.9518 240.009 70.7666L240.194 69.4081C240.194 69.3463 240.194 69.3463 240.194 69.3463H240.132L239.021 70.1491C238.897 70.2726 238.712 70.2726 238.589 70.2726C238.465 70.2726 238.342 70.1491 238.218 70.0256C238.095 69.8403 238.095 69.6551 238.156 69.5316C238.218 69.4081 238.342 69.2846 238.465 69.2228L239.762 68.6671C239.823 68.6671 239.823 68.6671 239.823 68.6054C239.823 68.6054 239.823 68.5436 239.762 68.5436L238.465 67.9879C238.28 67.9261 238.218 67.8026 238.156 67.6791C238.095 67.5556 238.156 67.3704 238.218 67.2469C238.28 67.1234 238.403 66.9999 238.589 66.9999C238.712 66.9999 238.897 66.9999 239.021 67.1234L240.132 67.9879C240.194 67.9879 240.194 67.9879 240.194 67.9879V67.9261L240.009 66.5677C240.009 66.3824 240.07 66.2589 240.132 66.1354C240.256 66.0119 240.379 65.9502 240.564 65.9502C240.75 65.9502 240.873 66.0119 240.935 66.1354C241.058 66.2589 241.058 66.3824 241.058 66.5677L240.873 67.9261C240.873 67.9879 240.873 67.9879 240.873 67.9879H240.935L242.046 67.1852C242.17 67.0617 242.355 67.0617 242.479 67.0617C242.664 67.0617 242.726 67.1852 242.849 67.3087C242.973 67.4939 242.973 67.6791 242.911 67.8026C242.849 67.9261 242.726 68.0496 242.602 68.1114L241.305 68.6671C241.244 68.6671 241.244 68.6671 241.244 68.7289C241.244 68.7289 241.244 68.7906 241.305 68.7906L242.602 69.3463C242.787 69.4081 242.849 69.5316 242.911 69.6551C242.973 69.7786 242.973 69.9638 242.849 70.0873C242.787 70.2108 242.664 70.3343 242.479 70.3343C242.293 70.3343 242.17 70.3343 242.046 70.2108L240.935 69.3463C240.873 69.3463 240.873 69.3463 240.873 69.3463V69.4081L241.058 70.7666C241.058 70.9518 241.058 71.0753 240.935 71.1988C240.811 71.3223 240.688 71.384 240.503 71.384Z" fill="#75BF7A"/>
</g>
<defs>
<filter id="filter0_d_41_67584" x="0" y="0.867676" width="255" height="181.266" filterUnits="userSpaceOnUse" color-interpolation-filters="sRGB">
<feFlood flood-opacity="0" result="BackgroundImageFix"/>
<feColorMatrix in="SourceAlpha" type="matrix" values="0 0 0 0 0 0 0 0 0 0 0 0 0 0 0 0 0 0 127 0" result="hardAlpha"/>
<feOffset dy="4"/>
<feGaussianBlur stdDeviation="2"/>
<feComposite in2="hardAlpha" operator="out"/>
<feColorMatrix type="matrix" values="0 0 0 0 0 0 0 0 0 0 0 0 0 0 0 0 0 0 0.25 0"/>
<feBlend mode="normal" in2="BackgroundImageFix" result="effect1_dropShadow_41_67584"/>
<feBlend mode="normal" in="SourceGraphic" in2="effect1_dropShadow_41_67584" result="shape"/>
</filter>
</defs>
</svg>
